<svg viewBox="0 0 44 44" fill="none" xmlns="http://www.w3.org/2000/svg">
    <path class="logo-path-base" d="M10 8V24C10 29 14 34 20 34H24" />
    <path class="logo-path-base" d="M34 36V20C34 15 30 10 24 10H20" />
    <path class="logo-path-draw-1" d="M10 8V24C10 29 14 34 20 34H24" />
    <path class="logo-path-draw-2" d="M34 36V20C34 15 30 10 24 10H20" />
    <path class="logo-path-flow-1" d="M10 8V24C10 29 14 34 20 34H24" />
    <path class="logo-path-flow-2" d="M34 36V20C34 15 30 10 24 10H20" />
    <circle class="logo-center-ring" cx="22" cy="22" r="5" />
    <circle class="logo-center-core" cx="22" cy="22" r="2" />
</svg>