<?xml version="1.0" standalone="no"?>
<!DOCTYPE svg PUBLIC "-//W3C//DTD SVG 20010904//EN"
 "http://www.w3.org/TR/2001/REC-SVG-20010904/DTD/svg10.dtd">
<svg version="1.0" xmlns="http://www.w3.org/2000/svg"
 width="512.000000pt" height="512.000000pt" viewBox="0 0 512.000000 512.000000"
 preserveAspectRatio="xMidYMid meet">

<g transform="translate(0.000000,512.000000) scale(0.100000,-0.100000)"
fill="#000000" stroke="none">
<path d="M2285 4674 c-475 -64 -894 -271 -1231 -608 -407 -407 -624 -931 -624
-1506 0 -575 217 -1099 624 -1506 241 -241 516 -411 842 -520 380 -127 846
-138 1236 -29 174 50 381 135 426 178 133 124 54 352 -126 365 -52 4 -70 -1
-165 -41 -258 -111 -442 -149 -707 -149 -210 0 -352 22 -532 82 -372 124 -671
352 -889 678 -127 190 -219 419 -260 648 -30 167 -30 421 0 588 127 708 678
1259 1387 1387 166 30 421 30 586 1 625 -113 1126 -547 1328 -1150 60 -180 82
-322 83 -532 0 -279 -48 -465 -147 -566 -55 -57 -97 -74 -179 -74 -88 0 -151
39 -193 122 -81 159 -114 463 -114 1046 0 389 -2 405 -70 473 -78 78 -175 86
-271 24 -37 -24 -89 -110 -89 -147 0 -24 -4 -23 -56 13 -69 47 -220 115 -306
138 -257 67 -506 42 -743 -73 -129 -63 -214 -125 -310 -227 -398 -421 -384
-1088 33 -1491 413 -400 1061 -404 1476 -9 39 38 71 61 73 54 14 -39 89 -137
146 -190 114 -106 247 -155 427 -155 123 -1 212 18 303 63 280 142 430 456
444 931 4 111 1 219 -7 289 -55 498 -263 934 -614 1285 -342 342 -756 545
-1240 609 -142 18 -402 18 -541 -1z m410 -1489 c287 -60 505 -329 505 -625 0
-348 -292 -640 -640 -640 -168 0 -328 68 -451 190 -252 250 -251 649 0 901
156 155 370 219 586 174z"/>
</g>
</svg>
