<?xml version="1.0" standalone="no"?>
<!DOCTYPE svg PUBLIC "-//W3C//DTD SVG 20010904//EN"
 "http://www.w3.org/TR/2001/REC-SVG-20010904/DTD/svg10.dtd">
<svg version="1.0" xmlns="http://www.w3.org/2000/svg"
 width="512.000000pt" height="512.000000pt" viewBox="0 0 512.000000 512.000000"
 preserveAspectRatio="xMidYMid meet">

<g transform="translate(0.000000,512.000000) scale(0.100000,-0.100000)"
fill="#000000" stroke="none">
<path d="M625 4400 c-145 -38 -245 -98 -345 -207 -67 -74 -138 -205 -162 -303
-10 -45 -13 -296 -13 -1335 l0 -1280 23 -75 c70 -224 229 -391 442 -465 l85
-30 1875 -3 c2099 -3 1948 -8 2107 70 156 76 289 228 349 399 l29 84 3 1265
c3 1428 7 1353 -73 1515 -80 164 -222 290 -396 351 l-84 29 -1885 2 c-1810 2
-1888 1 -1955 -17z m1468 -852 c25 -13 1200 -873 1265 -925 58 -47 58 -79 0
-126 -85 -69 -1249 -918 -1273 -929 -22 -10 -30 -8 -53 9 l-27 20 -3 961 -2
960 26 21 c31 24 38 25 67 9z"/>
</g>
</svg>
